<?xml version="1.0" encoding="UTF-8"?>
<svg id="Capa_1" data-name="Capa 1" xmlns="http://www.w3.org/2000/svg" viewBox="0 0 32.11 32.11">
  <defs>
    <style>
      .cls-1 {
        fill: #10b981;
      }

      .cls-2 {
        fill: #0f172a;
      }
    </style>
  </defs>
  <rect class="cls-2" x="0" y="0" width="32.11" height="32.11" rx="5.77" ry="5.77"/>
  <g>
    <path class="cls-1" d="M12.68,18.38v6.17s-.04.08-.08.08h-4.14s-.08-.04-.08-.08V7.3s.04-.08.08-.08h10.41s.08.04.08.08v3.73s-.04.08-.08.08h-6.1s-.08.04-.08.08v3.42s.04.08.08.08h5.24s.08.04.08.08v3.45s-.04.08-.08.08h-5.24s-.08.04-.08.08Z"/>
    <path class="cls-1" d="M23.66,11.11h-3.77s-.08-.04-.08-.08v-3.73s.04-.08.08-.08h3.77s.08.04.08.08v3.73s-.04.08-.08.08ZM23.66,24.63h-3.77s-.08-.04-.08-.08v-12.5s.04-.08.08-.08h3.77s.08.04.08.08v12.5s-.04.08-.08.08Z"/>
  </g>
</svg>