<?xml version="1.0" encoding="UTF-8"?>
<svg id="Capa_1" xmlns="http://www.w3.org/2000/svg" version="1.1" viewBox="0 0 167.89 50">
  <!-- Generator: Adobe Illustrator 30.1.0, SVG Export Plug-In . SVG Version: 2.1.1 Build 136)  -->
  <defs>
    <style>
      .st0 {
        fill: #10b981;
      }

      .st1 {
        fill: #0f172a;
      }
    </style>
  </defs>
  <path class="st0" d="M13.6,31.39v16.96H2.07V1.7h28.31v10.42H13.6v9.6h14.48v9.67h-14.48Z"/>
  <path class="st0" d="M43.21,12.12h-10.52V1.7h10.52v10.42ZM43.21,48.35h-10.52V14.42h10.52v33.93Z"/>
  <path class="st1" d="M165.59,48.35h-10.52v-10.42h10.52v10.42Z"/>
  <path class="st0" d="M60.94,21.91c-1.96,0-3.29.15-3.96.46-.68.3-1.02.99-1.02,2.07,0,.42.13.76.39,1.02.26.26.62.41,1.09.46l8.35,1.12c2.71.37,4.62,1.25,5.72,2.63,1.1,1.38,1.65,3.57,1.65,6.56,0,4.49-1.01,7.75-3.02,9.79-2.01,2.03-5.52,3.05-10.52,3.05-2.76,0-5.25-.1-7.47-.32-2.22-.21-4.1-.5-5.65-.88v-9.12c1.17.28,2.79.53,4.88.74,2.08.21,4.2.32,6.35.32,1.92,0,3.21-.2,3.89-.6.68-.4,1.02-1.16,1.02-2.28,0-.37-.12-.69-.35-.95-.23-.26-.54-.41-.91-.46l-8.63-1.12c-2.53-.33-4.36-1.25-5.51-2.77-1.15-1.52-1.72-3.78-1.72-6.77,0-3.93,1.24-6.89,3.72-8.87,2.48-1.99,6.15-2.98,11.01-2.98,1.92,0,3.69.05,5.33.14,1.64.09,3.37.28,5.19.56v8.77s0,0,0,0c-1.17-.19-2.62-.33-4.35-.42-1.73-.09-3.55-.14-5.47-.14Z"/>
  <path class="st0" d="M86,34.88v13.47h-10.52V1.7h10.52v25.04h1.61l8.77-13.05h12.49l-12.21,16.69,12.91,17.96h-12.84l-9.12-13.47h-1.61Z"/>
  <path class="st0" d="M119.88,49.05c-3.55,0-6.16-.89-7.82-2.67-1.66-1.78-2.49-4.58-2.49-8.42s.99-6.69,2.98-8.28c1.99-1.59,5.41-2.38,10.28-2.38,1.12,0,2.28.06,3.47.18,1.19.12,2.23.27,3.12.46,0,0,0,0,0,0v-2.53c0-1.12-.48-1.95-1.44-2.49-.96-.54-2.42-.81-4.38-.81-2.24,0-4.24.06-6,.18-1.75.12-3.36.32-4.8.6,0,0,0,0,0,0v-8.63c1.73-.42,3.74-.74,6.03-.95,2.29-.21,4.96-.32,8-.32,4.3,0,7.56.96,9.79,2.88,2.22,1.92,3.33,4.75,3.33,8.49v23.99h-9.82l-.35-2.95h-.21c-1.45,1.12-3.04,2.01-4.77,2.67-1.73.65-3.37.98-4.91.98ZM124.23,34.25c-1.87,0-3.13.2-3.79.6-.66.4-.98,1.23-.98,2.49,0,1.17.27,1.98.81,2.42.54.44,1.48.67,2.84.67,1.03,0,2.1-.14,3.23-.42,1.12-.28,2.15-.63,3.09-1.05v-4.28c-.56-.14-1.26-.25-2.1-.32s-1.87-.11-3.09-.11Z"/>
  <path class="st0" d="M152.77,1.7v46.65h-10.52V1.7h10.52Z"/>
</svg>